<?xml version="1.0" standalone="no"?>
<svg viewBox="0 0 200 200" xmlns="http://www.w3.org/2000/svg">
  <path fill="#FF0066" d="M40.1,-65.4C52.4,-54.6,63.1,-44.1,70.7,-31.2C78.3,-18.3,82.7,-2.9,79.1,10.2C75.4,23.3,63.6,34.1,52.5,43.6C41.3,53,30.8,61.2,18.7,65.6C6.6,70,-7.2,70.6,-18.7,66.1C-30.3,61.7,-39.6,52,-46.9,41.7C-54.2,31.4,-59.5,20.3,-66.3,6.4C-73.1,-7.5,-81.5,-24.3,-78.1,-37.3C-74.7,-50.4,-59.6,-59.7,-44.6,-69.4C-29.6,-79,-14.8,-89,-0.4,-88.3C13.9,-87.6,27.8,-76.3,40.1,-65.4Z" transform="translate(100 100)" />
</svg>
