<?xml version="1.0" standalone="no"?>
<svg viewBox="0 0 200 200" xmlns="http://www.w3.org/2000/svg">
  <path fill="#FF0066" d="M30.8,-36.2C44.4,-39.3,62.8,-38.2,63.9,-30.7C65.1,-23.2,48.9,-9.2,38.5,-0.3C28,8.5,23.4,12.4,20.5,20.4C17.6,28.4,16.6,40.6,11.3,45C6.1,49.5,-3.2,46.2,-10.2,41.2C-17.2,36.2,-21.8,29.5,-22.3,22.7C-22.9,16,-19.5,9.2,-27,0C-34.4,-9.2,-52.6,-20.8,-52.1,-24.6C-51.6,-28.4,-32.4,-24.5,-20.6,-22.2C-8.8,-19.9,-4.4,-19.3,2.1,-22.6C8.6,-25.9,17.3,-33.1,30.8,-36.2Z" transform="translate(100 100)" />
</svg>
